<svg viewBox="0 0 400 400" width="100%" style="max-width:280px;background:#000000;border-radius:12px;" role="img"><title>Workbench </title><desc>IIM</desc>
<path d="M 115,161 L 200,200 L 285,161 L 285,199 L 200,238 L 115,199 Z" fill="#2C6BFF"/>
<path d="M 90,233 L 200,280 L 310,233 L 310,270 L 200,318 L 90,270 Z" fill="#1E51C2"/>
<path d="M 60,302 L 200,360 L 340,302 L 340,342 L 200,399 L 60,342 Z" fill="#143079"/>
<!-- Crossed tools at (200,110) -->
<!-- Screwdriver: tilted 45deg -->
<g transform="translate(200 110) rotate(45)" fill="#3AD1A8">
  <rect x="-3" y="-40" width="6" height="32"/>
  <polygon points="-5,-8 5,-8 3,4 -3,4"/>
  <rect x="-7" y="4" width="14" height="22" rx="3"/>
  <rect x="-7" y="28" width="14" height="10" rx="2"/>
</g>
<!-- Wrench: tilted -45deg -->
<g transform="translate(200 110) rotate(-45)" fill="#3AD1A8">
  <rect x="-4" y="-22" width="8" height="42" rx="2"/>
  <path d="M -12,-22 L 12,-22 L 12,-34 L 6,-34 L 6,-40 L -6,-40 L -6,-34 L -12,-34 Z"/>
  <circle cx="0" cy="26" r="11"/>
  <circle cx="0" cy="26" r="5" fill="#000000"/>
</g>
</svg>