<svg xmlns="http://www.w3.org/2000/svg" viewBox="0 0 400 400" width="400" height="400" role="img" aria-labelledby="title desc">
  <title id="title">IIM Workbench Logo</title>
  <desc id="desc">Logo for the IIM Workbench</desc>

  <path d="M115 161 L200 200 L285 161 L285 199 L200 238 L115 199 Z" fill="#2C6BFF"/>
  <path d="M90 233 L200 280 L310 233 L310 270 L200 318 L90 270 Z" fill="#1E51C2"/>
  <path d="M60 302 L200 360 L340 302 L340 342 L200 399 L60 342 Z" fill="#143079"/>

  <g transform="translate(200 110) rotate(45)" fill="#3AD1A8">
    <rect x="-3" y="-40" width="6" height="32"/>
    <polygon points="-5,-8 5,-8 3,4 -3,4"/>
    <rect x="-7" y="4" width="14" height="22" rx="3"/>
    <rect x="-7" y="28" width="14" height="10" rx="2"/>
  </g>

  <g transform="translate(200 110) rotate(-45)" fill="#3AD1A8">
    <rect x="-4" y="-22" width="8" height="42" rx="2"/>
    <path d="M-12 -22 L12 -22 L12 -34 L6 -34 L6 -40 L-6 -40 L-6 -34 L-12 -34 Z"/>
    <circle cx="0" cy="26" r="11"/>
    <circle cx="0" cy="26" r="5" fill="transparent"/>
  </g>
</svg>
